Coordinates
version=1
nRows=34
nColumns=34
inDegrees=no

Units are S.I. units (second, meters, Newtons, ...)
If the header above contains a line with 'inDegrees', this indicates whether rotational values are in degrees (yes) or radians (no).

endheader
time	pelvis_tilt	pelvis_list	pelvis_rotation	pelvis_tx	pelvis_ty	pelvis_tz	hip_flexion_r	hip_adduction_r	hip_rotation_r	knee_angle_r	ankle_angle_r	subtalar_angle_r	mtp_angle_r	hip_flexion_l	hip_adduction_l	hip_rotation_l	knee_angle_l	ankle_angle_l	subtalar_angle_l	mtp_angle_l	lumbar_extension	lumbar_bending	lumbar_rotation	arm_flex_r	arm_add_r	arm_rot_r	elbow_flex_r	pro_sup_r	arm_flex_l	arm_add_l	arm_rot_l	elbow_flex_l	pro_sup_l
0	0.170188	-0.0157178	0.0435221	-0.0781771	1.11745	-0.216508	0.268456	0.0502257	-0.169563	0.257678	-0.0630649	-0.0472939	-0.036405	-0.446268	-0.0374476	-0.239819	0.410266	0.0123722	-0.0024863	-0.107183	-0.374016	0.115381	-0.0750046	-0.185812	-0.144331	-0.209955	0.6523	2.08238	-0.124748	-0.126162	-0.118895	0.801327	2.08155
0.01	0.165245	-0.0221922	0.0418752	-0.0641971	1.11987	-0.215185	0.270944	0.0563741	-0.166833	0.273376	-0.0613066	-0.0513171	-0.0365086	-0.416556	-0.0529572	-0.240002	0.47153	-0.0440559	-0.0441436	-0.107191	-0.367446	0.123199	-0.0724172	-0.185443	-0.14403	-0.215171	0.65071	2.0854	-0.130967	-0.121385	-0.12328	0.793203	2.0855
0.02	0.160737	-0.028596	0.0417808	-0.0505221	1.12217	-0.214001	0.271559	0.0624332	-0.166096	0.286212	-0.0584126	-0.0538579	-0.0366121	-0.38585	-0.0682048	-0.237294	0.531469	-0.10066	-0.085438	-0.107199	-0.361343	0.131243	-0.0705327	-0.185215	-0.143966	-0.219601	0.650324	2.08792	-0.136495	-0.117515	-0.125982	0.785881	2.08959
0.03	0.156665	-0.034939	0.0432283	-0.0371482	1.12437	-0.212952	0.270308	0.068404	-0.167334	0.296188	-0.0544092	-0.0549239	-0.0367157	-0.354138	-0.0831836	-0.231732	0.590092	-0.157239	-0.126283	-0.107207	-0.355705	0.139504	-0.0693316	-0.185127	-0.144144	-0.223244	0.651132	2.08992	-0.141323	-0.114547	-0.127012	0.779358	2.09384
0.04	0.153039	-0.0412244	0.0461752	-0.0240733	1.12649	-0.212031	0.267214	0.0742779	-0.170483	0.303338	-0.0493738	-0.054535	-0.0368192	-0.321424	-0.0978479	-0.223435	0.647381	-0.213178	-0.166423	-0.107215	-0.350536	0.147951	-0.0687491	-0.185173	-0.144573	-0.226096	0.653106	2.0914	-0.145428	-0.112461	-0.126414	0.773633	2.09824
0.05	0.149883	-0.0474255	0.0505228	-0.0112957	1.12855	-0.211229	0.262313	0.0800161	-0.175397	0.307758	-0.0434462	-0.0527275	-0.0369228	-0.287774	-0.112071	-0.212615	0.703242	-0.26731	-0.205397	-0.107223	-0.34586	0.156495	-0.0686585	-0.185343	-0.145269	-0.22816	0.656181	2.0923	-0.148783	-0.111209	-0.124302	0.768704	2.10281
0.06	0.147231	-0.0534554	0.0560981	0.00118702	1.13056	-0.21054	0.255669	0.0855357	-0.181836	0.309641	-0.0368222	-0.0495645	-0.0370264	-0.253352	-0.125624	-0.199597	0.757469	-0.317934	-0.24256	-0.107231	-0.341729	0.164979	-0.0688698	-0.185605	-0.14625	-0.229453	0.660246	2.09261	-0.151362	-0.110708	-0.120889	0.764583	2.10755
0.07	0.145125	-0.0591553	0.0626495	0.0133807	1.13256	-0.209951	0.24738	0.0907031	-0.189453	0.309279	-0.0297335	-0.0451498	-0.03713	-0.218422	-0.138179	-0.184803	0.809738	-0.362986	-0.277154	-0.107239	-0.338216	0.173174	-0.0691489	-0.185912	-0.147532	-0.230013	0.665147	2.09232	-0.15317	-0.110836	-0.1165	0.761309	2.11247
0.08	0.143598	-0.0643062	0.0698614	0.0252942	1.13455	-0.209449	0.237575	0.0953431	-0.197818	0.307048	-0.0224187	-0.0396392	-0.0372336	-0.183331	-0.14934	-0.168739	0.859628	-0.400353	-0.308429	-0.107247	-0.335402	0.180792	-0.0692492	-0.18619	-0.14912	-0.229906	0.670692	2.09146	-0.154252	-0.111444	-0.11156	0.758952	2.11758
0.09	0.142668	-0.0686616	0.0773832	0.0369379	1.13655	-0.209015	0.226421	0.0992613	-0.206458	0.303366	-0.0150949	-0.0332405	-0.0373372	-0.148463	-0.158703	-0.15196	0.906656	-0.428255	-0.335752	-0.107255	-0.333355	0.18752	-0.0689474	-0.186345	-0.151004	-0.229224	0.67667	2.09011	-0.154705	-0.112367	-0.106551	0.757618	2.12285
0.1	0.142319	-0.0719901	0.0848666	0.0483262	1.13859	-0.208633	0.21411	0.102278	-0.214907	0.298644	-0.00793602	-0.0262006	-0.0374408	-0.11419	-0.165914	-0.135034	0.950324	-0.445608	-0.358712	-0.107263	-0.332109	0.193062	-0.0680739	-0.186267	-0.153157	-0.228087	0.682865	2.0884	-0.154681	-0.113445	-0.101955	0.757436	2.12822
0.11	0.142494	-0.0741159	0.0920011	0.0594752	1.14066	-0.208285	0.200848	0.104262	-0.222761	0.293232	-0.00106291	-0.0187789	-0.0375444	-0.0808309	-0.170733	-0.1185	0.990158	-0.452268	-0.377177	-0.107271	-0.331649	0.197182	-0.0665317	-0.185843	-0.155537	-0.22663	0.689075	2.08651	-0.154367	-0.114547	-0.0981845	0.758535	2.13357
0.12	0.143092	-0.0749509	0.0985412	0.0704048	1.14276	-0.207955	0.186844	0.105165	-0.22972	0.287386	0.00545658	-0.0112158	-0.037648	-0.0486173	-0.173074	-0.102833	1.02575	-0.449094	-0.391308	-0.107279	-0.331901	0.199747	-0.0643004	-0.18497	-0.158089	-0.225003	0.695125	2.08465	-0.153972	-0.115578	-0.0955313	0.761019	2.13876
0.13	0.143977	-0.0745095	0.104321	0.0811366	1.14489	-0.207627	0.172299	0.105028	-0.235612	0.281253	0.0115994	-0.0037019	-0.0377516	-0.0176829	-0.17302	-0.0884114	1.05676	-0.437811	-0.401531	-0.107287	-0.332734	0.20074	-0.0614264	-0.183567	-0.160754	-0.22336	0.700868	2.08303	-0.153698	-0.116492	-0.0941291	0.76494	2.1436
0.14	0.14499	-0.0729069	0.109259	0.0916944	1.14704	-0.207291	0.157398	0.103984	-0.240398	0.274878	0.0173775	0.00364581	-0.0378552	0.0119353	-0.170808	-0.0755025	1.08299	-0.420701	-0.408471	-0.107295	-0.333973	0.200264	-0.0580066	-0.181582	-0.163477	-0.221848	0.706192	2.0819	-0.153717	-0.117285	-0.0939517	0.77028	2.14792
0.15	0.145968	-0.0703396	0.113347	0.102102	1.14918	-0.206943	0.14231	0.102232	-0.244157	0.268233	0.0228301	0.0107991	-0.0379588	0.0402805	-0.166791	-0.0642563	1.10433	-0.400212	-0.412864	-0.107303	-0.335421	0.198526	-0.0541671	-0.178998	-0.166211	-0.220605	0.711017	2.08147	-0.154154	-0.11799	-0.0948394	0.77695	2.15157
0.16	0.146761	-0.0670542	0.116638	0.112382	1.15129	-0.206582	0.127184	0.100007	-0.247061	0.261257	0.0280173	0.0178194	-0.0380625	0.067452	-0.161391	-0.0547144	1.12079	-0.378571	-0.415451	-0.107311	-0.33688	0.195797	-0.0500445	-0.175832	-0.168923	-0.219745	0.715295	2.08191	-0.155076	-0.118656	-0.0965459	0.78479	2.15444
0.17	0.147252	-0.0633123	0.119223	0.122551	1.15333	-0.20621	0.112151	0.0975467	-0.249341	0.25389	0.0330146	0.0248441	-0.0381661	0.0935758	-0.155042	-0.0468284	1.13245	-0.357487	-0.416879	-0.107319	-0.338176	0.192383	-0.0457696	-0.172125	-0.171599	-0.219357	0.719013	2.08336	-0.156492	-0.119341	-0.0987917	0.793584	2.1565
0.18	0.147363	-0.059361	0.121218	0.132622	1.15529	-0.205832	0.0973232	0.0950633	-0.251247	0.246101	0.0379071	0.0320591	-0.0382697	0.118777	-0.14815	-0.0404845	1.13948	-0.338011	-0.417632	-0.107326	-0.339177	0.188585	-0.0414573	-0.167937	-0.174239	-0.219499	0.722198	2.08585	-0.158355	-0.120091	-0.101308	0.803084	2.15774
0.19	0.147063	-0.0554136	0.122739	0.142601	1.15714	-0.205455	0.0827845	0.0927244	-0.253017	0.2379	0.0427794	0.0396605	-0.0383734	0.143153	-0.141061	-0.0355322	1.14208	-0.320535	-0.417988	-0.107334	-0.339808	0.184671	-0.0371997	-0.163338	-0.176855	-0.220194	0.724922	2.08933	-0.160577	-0.120936	-0.103868	0.813028	2.15814
0.2	0.146354	-0.051639	0.123895	0.152492	1.15886	-0.205086	0.0685891	0.0906495	-0.254841	0.229332	0.0477048	0.0478118	-0.038477	0.16676	-0.134048	-0.0318102	1.14045	-0.304933	-0.418021	-0.107342	-0.340052	0.180857	-0.033063	-0.158398	-0.179466	-0.221432	0.727298	2.09364	-0.163037	-0.121885	-0.106296	0.823163	2.15765
0.21	0.145268	-0.0481574	0.124777	0.162295	1.16043	-0.204731	0.0547578	0.0889159	-0.256839	0.220468	0.0527339	0.0566037	-0.0385807	0.189598	-0.127308	-0.0291691	1.13478	-0.290753	-0.417636	-0.10735	-0.339943	0.177301	-0.0290883	-0.153187	-0.182097	-0.223172	0.729479	2.09852	-0.165598	-0.122923	-0.108472	0.833249	2.15615
0.22	0.143859	-0.0450428	0.125451	0.17201	1.16184	-0.204394	0.0412807	0.0875687	-0.259052	0.211385	0.0578882	0.066028	-0.0386844	0.21162	-0.120973	-0.0274859	1.12525	-0.277434	-0.416629	-0.107358	-0.33955	0.174104	-0.0252944	-0.147765	-0.18477	-0.225341	0.731643	2.10364	-0.168123	-0.12402	-0.11032	0.843079	2.15352
0.23	0.142191	-0.042331	0.125956	0.181638	1.16309	-0.204075	0.0281244	0.0866315	-0.261437	0.202155	0.0631602	0.0759705	-0.0387881	0.232737	-0.115119	-0.026671	1.11198	-0.264469	-0.41475	-0.107366	-0.338961	0.171317	-0.0216842	-0.142183	-0.187504	-0.227846	0.733968	2.10861	-0.170486	-0.125135	-0.111808	0.852477	2.14963
0.24	0.140328	-0.0400285	0.126304	0.191183	1.16417	-0.203775	0.0152447	0.0861118	-0.263884	0.192838	0.0685211	0.0862262	-0.0388918	0.252836	-0.10978	-0.0266684	1.09509	-0.25152	-0.41176	-0.107374	-0.338261	0.168945	-0.0182518	-0.13648	-0.190308	-0.230578	0.736616	2.11306	-0.172581	-0.126217	-0.112934	0.861305	2.14443
0.25	0.138324	-0.0381216	0.126488	0.200649	1.16508	-0.203489	0.00260079	0.0860022	-0.266243	0.183491	0.073935	0.0965333	-0.0389956	0.271798	-0.104953	-0.0274489	1.07465	-0.238447	-0.407468	-0.107381	-0.337524	0.166962	-0.0149893	-0.130684	-0.193184	-0.233426	0.739709	2.11666	-0.174334	-0.127221	-0.113731	0.86946	2.13795
0.26	0.136218	-0.0365816	0.12648	0.210045	1.16581	-0.203214	-0.00983242	0.0862794	-0.268353	0.174175	0.0793743	0.106616	-0.0390993	0.289511	-0.100609	-0.029002	1.05075	-0.225291	-0.401741	-0.107389	-0.3368	0.165314	-0.0118929	-0.124812	-0.19612	-0.236289	0.743321	2.11919	-0.175701	-0.128105	-0.114258	0.876882	2.13031
0.27	0.134031	-0.0353688	0.126245	0.219378	1.16636	-0.202944	-0.0220575	0.0869023	-0.270071	0.164965	0.0848318	0.116222	-0.0392031	0.305881	-0.0966955	-0.0313264	1.02348	-0.212215	-0.394498	-0.107397	-0.336117	0.16393	-0.00896505	-0.118874	-0.199091	-0.239082	0.747477	2.12055	-0.176667	-0.12884	-0.1146	0.883544	2.12176
0.28	0.131776	-0.0344352	0.125747	0.228656	1.16675	-0.202675	-0.0340559	0.0878135	-0.271295	0.155954	0.0903255	0.125154	-0.0393069	0.320836	-0.0931452	-0.0344233	0.992938	-0.199437	-0.385671	-0.107405	-0.335491	0.16273	-0.00621586	-0.11288	-0.20206	-0.241752	0.752164	2.12076	-0.177242	-0.129412	-0.11486	0.889449	2.11265
0.29	0.129458	-0.0337287	0.124957	0.237887	1.16696	-0.202401	-0.0457975	0.0889456	-0.271965	0.14725	0.0958947	0.133272	-0.0394107	0.334324	-0.0898821	-0.0382924	0.959254	-0.187163	-0.375176	-0.107413	-0.33493	0.161634	-0.00366184	-0.106842	-0.204981	-0.244273	0.757342	2.12003	-0.177451	-0.129824	-0.115147	0.894623	2.10338
0.3	0.127092	-0.0331967	0.123863	0.247081	1.167	-0.202121	-0.0572553	0.0902316	-0.27206	0.13896	0.101589	0.140489	-0.0395145	0.346305	-0.0868306	-0.042932	0.922591	-0.175546	-0.362885	-0.107421	-0.334445	0.160573	-0.00132459	-0.100782	-0.207801	-0.246642	0.762963	2.11864	-0.17733	-0.130097	-0.115567	0.899098	2.09444
0.31	0.124703	-0.0327919	0.122471	0.256244	1.16688	-0.201833	-0.0684204	0.0916166	-0.271579	0.131177	0.107453	0.146748	-0.0396184	0.35675	-0.0839238	-0.0483408	0.883153	-0.164671	-0.348623	-0.107429	-0.334056	0.159495	0.000770582	-0.0947327	-0.210468	-0.248873	0.768981	2.11701	-0.176915	-0.130268	-0.116203	0.902904	2.08635
0.32	0.122334	-0.0324797	0.120813	0.265387	1.1666	-0.201538	-0.0793144	0.093067	-0.270522	0.123963	0.113518	0.15201	-0.0397222	0.365635	-0.0811086	-0.0545209	0.841186	-0.154551	-0.332179	-0.107437	-0.333796	0.158371	0.0025954	-0.0887399	-0.212938	-0.250981	0.775358	2.11554	-0.176239	-0.130386	-0.117108	0.906058	2.0796
0.33	0.120042	-0.0322375	0.118938	0.274519	1.16617	-0.201238	-0.0899905	0.0945765	-0.268883	0.11734	0.119792	0.156239	-0.0398261	0.37294	-0.0783483	-0.0614771	0.796977	-0.14515	-0.313352	-0.107445	-0.333702	0.157198	0.00412121	-0.0828567	-0.215177	-0.252975	0.782067	2.11461	-0.17533	-0.130504	-0.1183	0.908556	2.07464
